<svg xmlns="http://www.w3.org/2000/svg" viewBox="0 0 209 29"><g fill="none"><path fill="#FFFFFF" d="M8.04 7.93C8 8 8 8.06 8 8.15v3.58c0 .08.05.13.1.16.06.04.12.04.22.04h3.6c.08 0 .14-.05.17-.1s.03-.12.03-.2V8.56v-.5c0-.1-.05-.14-.1-.17-.05-.04-.12-.04-.2-.04H8.19c-.07 0-.13.04-.16.1zM4.4 7.9c-.45.14-.77.36-1.03.66-.17.2-.3.43-.4.72-.1.28-.12.65-.05.98.12.6.46 1.03.9 1.32.2.14.5.26.8.3.15.03.35.04.53.04h.27c.06-.04.12-.1.13-.16.02-.06 0-.14 0-.23v-3.3c0-.07.02-.16 0-.22-.02-.1-.1-.16-.24-.16h-.42c-.18 0-.34.03-.5.07zm5.1-5.04c-.43.12-.77.36-1.02.66-.24.3-.45.67-.47 1.2v.54c.02.06.06.12.12.15.07.04.17.03.27.03h3.36c.1 0 .2 0 .26-.03.05-.03.1-.1.1-.17v-.28-.28c0-.18-.05-.34-.1-.48-.1-.3-.23-.53-.4-.73-.2-.2-.4-.36-.67-.5-.26-.1-.58-.2-.96-.2-.2.02-.35.05-.5.1zM9.97.4h.2c.7 0 1.3.17 1.8.4.52.25.94.56 1.3.93.4.37.7.82.92 1.33.1.26.2.53.26.84.07.3.1.64.1 1v9.2c-.02.12-.1.2-.22.23h-9.5c-.7-.03-1.28-.2-1.78-.42-.5-.22-.92-.53-1.28-.9-.36-.34-.67-.77-.9-1.27-.23-.5-.4-1.07-.4-1.77v-.16-.3c.03-.26.07-.5.14-.74.24-.92.72-1.63 1.34-2.2.4-.36.9-.67 1.5-.87.28-.1.6-.2.94-.23.36-.05.75-.04 1.15-.04 0-.4 0-.8.05-1.14.04-.36.12-.68.23-.97.2-.57.5-1.05.88-1.46.38-.4.83-.76 1.36-1.02C8.6.6 9.2.4 9.96.4z"/><path fill="#FFFFFF" d="M46.96 15.65c-1.56 0-2.8.62-3.72 1.85-.83-1.23-1.96-1.85-3.4-1.85-.63 0-1.16.1-1.6.33-.38.2-.86.6-1.43 1.18V16h-2.9v12.5h2.9v-6.46c0-1.3.2-2.26.58-2.87.38-.6.97-.9 1.8-.9 1.3 0 1.94 1.1 1.94 3.32v6.9h2.93v-6.46c0-1.32.2-2.28.56-2.88.37-.6.96-.9 1.76-.9.7 0 1.2.25 1.5.76.3.5.44 1.34.44 2.54v6.94h2.93v-7.73c0-3.4-1.42-5.12-4.27-5.12M80.53 8.95c-.52 0-.96.18-1.33.55-.38.37-.56.8-.56 1.3 0 .54.18 1 .56 1.35.37.37.82.56 1.35.56.52 0 .97-.18 1.33-.55.37-.36.56-.8.56-1.33 0-.52-.2-.96-.56-1.32-.37-.37-.82-.55-1.35-.55M79.08 28.5H82V16h-2.92zM87.5 11.94c-1.7 1.97-2.54 4.22-2.54 6.74 0 2.82 1 5.22 3.03 7.2 2 2 4.45 2.98 7.32 2.98 1.9 0 3.72-.5 5.45-1.45v-3.6c-.5.4-.97.76-1.4 1.05-.46.3-.9.52-1.3.7-.75.34-1.65.5-2.7.5-2.07 0-3.8-.7-5.23-2.13C88.72 22.5 88 20.74 88 18.66c0-2.1.72-3.9 2.14-5.34 1.4-1.46 3.15-2.2 5.2-2.2 1.87 0 3.68.73 5.43 2.18V9.75C99.1 8.8 97.35 8.3 95.55 8.3c-3.3 0-5.98 1.22-8.06 3.64M112.6 25.2c-.68.7-1.6 1.08-2.73 1.08s-2.05-.37-2.74-1.1c-.67-.73-1-1.72-1-2.97 0-1.15.33-2.1 1.03-2.84.7-.73 1.6-1.1 2.7-1.1 1.14 0 2.05.37 2.75 1.1.7.73 1.03 1.7 1.03 2.92 0 1.2-.34 2.18-1.02 2.9zm-2.73-9.55c-1.88 0-3.47.64-4.78 1.9-1.3 1.27-1.97 2.8-1.97 4.6 0 1.93.65 3.52 1.92 4.78 1.28 1.28 2.87 1.93 4.77 1.93 1.9 0 3.52-.63 4.84-1.9 1.3-1.26 1.96-2.82 1.96-4.7 0-1.85-.65-3.42-1.95-4.7-1.3-1.27-2.92-1.9-4.8-1.9zM132.48 15.65c-1.57 0-2.8.62-3.72 1.85-.84-1.23-1.97-1.85-3.4-1.85-.63 0-1.16.1-1.6.33-.4.2-.87.6-1.43 1.18V16h-2.92v12.5h2.93v-6.46c0-1.3.2-2.26.57-2.87.37-.6.97-.9 1.8-.9 1.3 0 1.94 1.1 1.94 3.32v6.9h2.93v-6.46c0-1.32.2-2.28.55-2.88.37-.6.95-.9 1.76-.9.7 0 1.2.25 1.5.76.3.5.43 1.34.43 2.54v6.94h2.95v-7.73c0-3.4-1.43-5.12-4.27-5.12M153.2 15.65c-1.56 0-2.8.62-3.72 1.85-.83-1.23-1.96-1.85-3.4-1.85-.63 0-1.16.1-1.58.33-.4.2-.88.6-1.44 1.18V16h-2.92v12.5h2.92v-6.46c0-1.3.2-2.26.56-2.87.38-.6.98-.9 1.8-.9 1.3 0 1.95 1.1 1.95 3.32v6.9h2.93v-6.46c0-1.32.18-2.28.55-2.88.37-.6.95-.9 1.76-.9.7 0 1.2.25 1.5.76.3.5.44 1.34.44 2.54v6.94h2.93v-7.73c0-3.4-1.42-5.12-4.27-5.12M185.74 17.58c-1.34 1.28-2 2.86-2 4.72 0 1.86.66 3.43 1.97 4.68 1.33 1.25 2.96 1.88 4.92 1.88 1.18 0 2.37-.3 3.55-.92v-3.8c-.7.83-1.3 1.4-1.83 1.7-.53.3-1.15.44-1.85.44-1.1 0-2.02-.38-2.72-1.13-.7-.75-1.06-1.72-1.06-2.9 0-1.14.37-2.1 1.1-2.85.72-.76 1.63-1.14 2.73-1.14.7 0 1.3.15 1.83.46.53.3 1.13.85 1.8 1.66v-3.84c-1.1-.6-2.3-.9-3.54-.9-1.93 0-3.57.66-4.9 1.94M12.06 28.5h3.3l6.56-14.36 6.3 14.36h3.32L21.98 7.45 12.06 28.5M57.68 19.6c.2-.28.4-.52.66-.72.25-.2.54-.35.85-.46.3-.1.63-.16 1-.16 1.55 0 2.53.77 2.93 2.3h-5.86c.1-.35.23-.67.4-.96zm4.5 6.16c-.47.35-1.07.52-1.8.52-.93 0-1.7-.3-2.3-.9-.6-.6-.93-1.42-1-2.45h9.05l.02-.68c0-2.06-.54-3.67-1.6-4.84-1.1-1.16-2.57-1.75-4.43-1.75-1.84 0-3.32.6-4.43 1.8-1.12 1.24-1.67 2.84-1.67 4.8 0 2 .57 3.6 1.7 4.8 1.15 1.2 2.66 1.8 4.55 1.8.66 0 1.27-.06 1.83-.2.57-.14 1.1-.35 1.58-.65.48-.3.94-.67 1.36-1.13.42-.45.82-1 1.2-1.62h-3.5c-.2.2-.38.38-.55.5zM163.93 19.6c.18-.28.4-.52.65-.72.26-.2.54-.35.85-.46.32-.1.65-.16 1-.16 1.56 0 2.54.77 2.95 2.3h-5.87c.1-.35.25-.67.43-.96zm4.5 6.16c-.47.35-1.08.52-1.8.52-.94 0-1.7-.3-2.3-.9-.6-.6-.93-1.42-1-2.45h9.05v-.68c0-2.06-.53-3.67-1.6-4.84-1.08-1.16-2.55-1.75-4.4-1.75-1.85 0-3.33.6-4.45 1.8-1.1 1.24-1.66 2.84-1.66 4.8 0 2 .57 3.6 1.7 4.8 1.15 1.2 2.67 1.8 4.55 1.8.66 0 1.27-.06 1.83-.2s1.1-.35 1.57-.65c.5-.3.94-.67 1.37-1.13.4-.45.8-1 1.18-1.63H169c-.2.22-.4.4-.57.52zM199.97 19.6c.18-.28.4-.52.65-.72.26-.2.54-.35.85-.46.3-.1.65-.16 1-.16 1.56 0 2.54.77 2.95 2.3h-5.87c.1-.35.23-.67.42-.96zm5.07 5.64c-.2.22-.4.4-.57.52-.48.35-1.08.52-1.8.52-.94 0-1.7-.3-2.3-.9-.6-.6-.94-1.42-1-2.45h9.04l.03-.68c0-2.06-.54-3.67-1.6-4.84-1.1-1.16-2.56-1.75-4.42-1.75-1.84 0-3.32.6-4.43 1.8-1.1 1.24-1.66 2.84-1.66 4.8 0 2 .58 3.6 1.72 4.8 1.14 1.2 2.66 1.8 4.54 1.8.66 0 1.27-.06 1.83-.2.55-.14 1.08-.35 1.56-.65.5-.3.94-.67 1.36-1.13.42-.45.82-1 1.2-1.63h-3.48zM73.38 15.98c-.42.2-.9.58-1.43 1.14V16h-2.92v12.5h2.92v-6.48c0-2.38.8-3.57 2.4-3.57.5 0 1.05.2 1.6.6V15.8c-.36-.1-.72-.15-1.07-.15-.58 0-1.08.1-1.5.33M179.62 15.98c-.4.2-.9.58-1.43 1.14V16h-2.92v12.5h2.9v-6.48c0-2.38.8-3.57 2.4-3.57.53 0 1.07.2 1.62.6V15.8c-.36-.1-.72-.15-1.07-.15-.58 0-1.08.1-1.5.33"/></g></svg>