<svg xmlns="http://www.w3.org/2000/svg" viewBox="0 0 407.6 75.9"><path fill="#FFF" d="M11.2 19.2c2.9-4.7 7.1-7 12.6-7 11.8.4 17.7 8.3 17.7 23.7 0 15.1-6.9 22.7-20.7 22.9C7 58.9 0 52.2 0 38.6V0h5.6c3.7 0 5.5 2 5.5 5.7v13.5zM13.3 36c-.1 9 2.9 13.5 9.3 13.5S32.2 45 32.2 36c-.3-8.6-3.4-12.8-9.4-12.8s-9.2 4.2-9.5 12.8zm51.1 23.2C51 58.8 44.2 51 44.2 35.8c0-15.1 6.8-22.7 20.3-22.8 14.1 0 20.7 8.7 19.9 26H55.7c.4 6.8 3.4 10.2 8.8 10.2 2.6 0 5-1.1 7.2-3.2 1-1.1 2.3-1.6 3.8-1.6h8.2c-2.4 9.6-8.4 14.8-19.3 14.8zm-8.5-28.1h16.7c-.7-5.9-3.4-8.9-8.2-8.9-4.8 0-7.7 3-8.5 8.9zm43.2-5.8H88c1.3-8.2 7.1-12.3 17.4-12.3 12.3 0 18.5 4 18.7 12.3v15.1c0 12.3-7.4 17.7-19.4 18.6-10.7.8-18.1-4.1-18.1-13.9.3-10.7 8-13.5 19.2-14.6 4.8-.6 7.2-2 7.2-4.5-.3-2.5-2.6-3.8-7.2-3.8-3.9 0-6.1 1-6.7 3.1zm14.2 15.6v-4.1c-2.6 1.1-5.6 2-8.9 2.7-4.5.8-6.7 2.9-6.7 6.2.3 3.5 2.1 5.2 5.6 5.2 6.2 0 10-3.7 10-10zm51.6.5c0 7.6-1.9 12.7-5.9 15.1-3.9 2.3-8.3 3.4-13.1 3.4-4.6 0-8.7-1.3-12.6-3.8-3.9-2.4-5.8-7.3-5.8-14.8V14.7h11.2v29c0 5 2.5 7.4 7.6 7.4s7.6-2.4 7.6-7.4V20.3c-.1-3.7 1.7-5.5 5.4-5.5h5.7v26.6zm14.7-12.6v28.4h-11.3V31c0-12.7 6.4-19 19.1-19 5.7 0 10.1 1.3 13.3 3.8 3.2-2.4 7.6-3.6 13.3-3.6 12.7 0 19 6.3 18.9 19v26.1h-5.8c-3.7-.3-5.5-2-5.5-5.5V28.9c-.3-4.6-2.8-6.9-7.7-6.9s-7.5 2.3-7.6 6.9v28.2H195V28.8c-.3-4.6-2.8-6.9-7.7-6.9s-7.7 2.3-7.7 6.9zm96.3 7.6c0 15.3-6.8 23-20.2 23-13.4 0-20.2-7.7-20.2-23 0-15.5 6.7-23.1 20.2-23.1 13.4 0 20.2 7.7 20.2 23.1zm-29.1 0c.1 8.7 3 13 8.7 13s8.6-4.5 8.7-13.4c0-8.7-2.9-12.9-8.6-12.9-5.9 0-8.8 4.5-8.8 13.3zm64.5 21.8c-3.7-.3-5.5-2-5.5-5.5V29.8c-.3-4.6-2.8-6.9-7.7-6.9s-7.5 2.3-7.6 6.9v28.4h-11.3V32c0-12.7 6.4-19 19.1-19s18.9 6.3 18.8 19v26.1h-5.8zm21.1-36h-1.2v24.6c0 1.8 1.1 2.9 3.3 2.9h3.4v8.5c-3.6.3-7.6.3-11.8-.1-4.2-.4-6.2-3-6.1-8V1.5h5.8c2.9 0 5.4 2.7 5.4 5.6v7.1h6.7v2.4c.1 3.2-2.4 5.6-5.5 5.6zm17.8 27.1v8.8h-9.5v-5.5c0-2.2 1.2-3.3 3.6-3.3h5.9z"/><path fill="#FFF" d="M349.9 75.9H348v-9.8h2.1c2 0 2.8-1.1 2.8-2.9V13.7h5.8c3.6 0 5.4 1.8 5.4 5.4V65c0 8.4-5.3 10.9-14.2 10.9zM358.7 1c3.7 0 5.5 1.8 5.4 5.5v3.3h-11.2V1h5.8zm30.2 49.1c4.7 0 7.1-1.3 7.1-4.2 0-2.3-3.9-4.1-11.5-5.5-9.8-1.8-14.9-6.1-15-13.1 0-9.6 7.6-14.1 17.7-14.3 5.7 0 10.2 1.3 13.6 3.8 3.3 2.6 5 6.2 5.3 10.8H399c-2.6-.1-4.3-1-5-2.8-.8-1.9-3-3-6.7-3-4.4 0-6.6 1.2-6.6 3.4s2.9 4 8.7 5.1c7.6 1.5 12.5 3.4 15 5.7 2.1 2.2 3.1 4.9 3.1 7.9 0 10.9-8.6 15-20.3 15-6.2 0-10.9-1.3-13.9-3.9-3.4-2.5-5-6.4-5-11.5h11.4c.2 4.9 3.8 6.6 9.2 6.6z"/></svg>