<svg xmlns="http://www.w3.org/2000/svg" viewBox="0 0 194 38.9"><path fill="#FFFFFF" d="M70.7 11.8h10.5v2.8h-7.3v4.5h5.8v2.8h-5.8v7h-3.2V11.8zM85.1 11c1 0 1.9.8 1.9 1.8s-.9 1.8-1.9 1.8c-1.1 0-2-.8-2-1.8s.9-1.8 2-1.8zm1.5 17.9h-3V17.3h3v11.6zM101.2 24.1h-8.9c.2 1.5 1.5 2.5 3.2 2.5 1.2 0 2.4-.5 2.9-1.5.7.4 1.6.8 2.3 1.2-1 2-3.3 2.8-5.4 2.8-3.3 0-6-2.4-6-6.1s2.7-6 6-6 5.9 2.4 5.9 6v1.1zm-2.9-2c-.2-1.6-1.4-2.5-2.9-2.5-1.6 0-2.8.9-3.1 2.5h6zM103.8 11h3v18h-3V11zM119 27.4c-.6 1.2-2.1 1.8-3.7 1.8-3 0-5.7-2.4-5.7-6.1 0-3.7 2.6-6.1 5.7-6.1 1.5 0 3 .6 3.7 1.8V11h3v18h-3v-1.6zm-3.2-7.5c-1.7 0-3.1 1.2-3.1 3.1 0 1.9 1.4 3.2 3.1 3.2 1.7 0 3.1-1.2 3.1-3.2 0-1.9-1.5-3.1-3.1-3.1zM140.5 24.8h-6.4l-1.6 4.2h-3.4l6.4-17.2h3.4l6.4 17.2h-3.4l-1.4-4.2zm-5.4-2.8h4.3l-2.2-6.6-2.1 6.6zM146.7 20.5c0-1.9 2-3.5 4.3-3.5 2.2 0 4.4 1 4.5 3.7h-2.9c0-.9-.9-1.2-1.6-1.2-.7 0-1.5.3-1.5 1.1 0 .5.5.8 1.2 1l1.9.5c2.7.7 3 2.6 3 3.5 0 2.4-2.3 3.6-4.8 3.6-2.3 0-4.6-1.4-4.7-3.9h2.8c.1.8 1 1.5 2.1 1.5.8 0 1.5-.5 1.5-1.2 0-.6-.4-.9-1.3-1.1l-1.6-.4c-2.7-.8-2.9-2.2-2.9-3.6zM158 20.5c0-1.9 2-3.5 4.3-3.5 2.2 0 4.4 1 4.5 3.7h-2.9c0-.9-.9-1.2-1.6-1.2-.7 0-1.5.3-1.5 1.1 0 .5.5.8 1.2 1l1.9.5c2.7.7 3 2.6 3 3.5 0 2.4-2.3 3.6-4.8 3.6-2.3 0-4.6-1.4-4.7-3.9h2.8c.1.8 1 1.5 2.1 1.5.8 0 1.5-.5 1.5-1.2 0-.6-.4-.9-1.3-1.1l-1.6-.4c-2.6-.8-2.9-2.2-2.9-3.6zM171.3 11c1 0 1.9.8 1.9 1.8s-.9 1.8-1.9 1.8c-1.1 0-2-.8-2-1.8s.9-1.8 2-1.8zm1.5 17.9h-3V17.3h3v11.6zM175.8 20.5c0-1.9 2-3.5 4.3-3.5 2.2 0 4.4 1 4.5 3.7h-2.9c0-.9-.9-1.2-1.6-1.2-.7 0-1.5.3-1.5 1.1 0 .5.5.8 1.2 1l1.9.5c2.7.7 3 2.6 3 3.5 0 2.4-2.3 3.6-4.8 3.6-2.3 0-4.6-1.4-4.7-3.9h2.8c.1.8 1 1.5 2.1 1.5.8 0 1.5-.5 1.5-1.2 0-.6-.4-.9-1.3-1.1l-1.6-.4c-2.6-.8-2.9-2.2-2.9-3.6zM191.6 17.3h2.5v2.4h-2.5v9.2h-3v-9.2h-2.1v-2.4h2.1v-4.4h3v4.4z"/><g><path fill="#008CE2" d="M59.5 25.7l-17.3-7.6v-3.3l-6 3.1-4.1 15.2 7.3-1.4v4.2"/><path fill="#03A1FB" d="M42.2 9S9.2.8 8 .8v37.4c.9 0 1.8-.3 2.7-.4l6-1.2c2.1-.4 15.8-3.1 17.8-3.5V33l7.7-1.4V9z"/><path fill="#FFFFFF" d="M8 .8v37.4c-1.1.4-2.3.5-3.4.7-.4.1-.3-.2-.3-.5v-3.3c0-.2.1-.5-.2-.6-.2-.1-.4.1-.5.2-.7.4-1.4.8-2 1.3-.3.2-.5.2-.7-.1-.1-.2-.3-.4-.4-.7-.5-.9-.5-.9.3-1.4.4-.3.8-.6 1.2-.8.4-.3.5-.4 0-.7-.6-.3-1.1-.7-1.7-1.1-.3-.2-.4-.4-.2-.8.9-1.5.9-1.5 2.4-.6.4.3.8.5 1.3.8.3.2.4.1.4-.2V30 9.5c0-.2.1-.6-.1-.7-.2-.1-.4.1-.6.3-.6.4-1.3.8-1.9 1.2-.3.2-.5.2-.7-.2-1-1.5-1-1.5.5-2.4l.9-.6c.4-.2.3-.4 0-.6-.8-.3-1.4-.7-2-1.1-.3-.2-.4-.3-.2-.7.9-1.5.9-1.5 2.4-.6.3.2.7.4 1 .7.2.1.4.3.6.2.2-.1.1-.4.1-.5V.7c0-.7.2-.8.8-.6.7.2 1.5.3 2.2.4.3.1.6.1.8.3zM32.9 29.2h-1.4c-.3 0-.3-.1-.4-.3-.1-.9-.3-1.7-.5-2.6 0-.1-.2-.2-.3-.2H27c-.1 0-.3.2-.3.3-.2.7-.3 1.4-.5 2.1v.2c-.1.7-.1.7-.8.7H23c-.4 0-.5-.1-.4-.5.3-1.4.6-2.8.9-4.3.3-1.4.6-2.9.9-4.3l.9-4.2c.2-.9.4-1.8.5-2.7.1-.3.1-.5.2-.8 0-.1.2-.2.3-.2h4.5c.1 0 .4.1.4.3.2.9.4 1.7.5 2.6l.6 2.7c.2.9.4 1.9.6 2.8l.6 2.7c.2.9.3 1.8.5 2.6.2.9.4 1.9.6 2.8.1.4.1.5-.4.5-.4-.2-.9-.2-1.3-.2zm-5.5-6.4h2.2c.1 0 .2-.2.1-.2 0-.3-.1-.6-.2-1-.1-.7-.3-1.4-.4-2.1-.1-.6-.2-1.2-.4-1.8h-.1c-.4 1.6-.8 3.3-1.2 5.1zM15.1 8.5H22.9c.3 0 .4.1.4.4v2.5c0 .3-.1.4-.4.4H19c-.5 0-.5 0-.5.5v2.4c0 .3.1.4.4.4h4c.3 0 .4.1.4.4v2.6c0 .3-.1.4-.4.4h-4c-.4 0-.5.1-.5.5v6c0 .4-.1.5-.5.5h-3c.2-5.6.2-11.3.2-17z"/></g></svg>