<svg xmlns="http://www.w3.org/2000/svg" viewBox="0 0 76.5 37.7"><path d="M51.8 13.2h11.6v11.6H51.8V13.2zm13 12.8h11.6v11.6H64.8V26zm0-7.2h11.6v5.9H64.8v-5.9zM63.4 26v11.6c-6.4 0-11.6-5.2-11.6-11.6h11.6zm.1-14.4H52C52 5.2 57.2 0 63.5 0v11.6zM64.9 0h11.6c0 6.4-5.2 11.6-11.6 11.6V0zM37.6 11.6H26C26 5.2 31.2 0 37.6 0v11.6zm0 1.5v11.6c-6.4 0-11.6-5.2-11.6-11.6h11.6zm1.3 11.5V13.1c6.4 0 11.6 5.2 11.6 11.6H38.9v-.1zm0-24.6h11.6c0 6.4-5.2 11.6-11.6 11.6V0zm-1.3 37.6H26C26 31.2 31.2 26 37.6 26v11.6zM38.9 26h11.6c0 6.4-5.2 11.6-11.6 11.6V26zM0 26.1h11.6v11.6H0V26.1zm0-12.9h11.6v11.6H0V13.2zm11.6-1.6H0C0 5.2 5.2 0 11.6 0v11.6zM12.9 0h11.6c0 6.4-5.2 11.6-11.6 11.6V0zm0 13.1h11.6c0 6.4-5.2 11.6-11.6 11.6V13.1z" fill="#fff"/></svg>