<svg version="1" xmlns="http://www.w3.org/2000/svg" viewBox="0 0 7760 1540"><path d="M6570 940V340h230v71l43-29c60-42 127-62 206-62 222 0 368 154 388 411 10 135-26 270-98 360-115 146-351 183-496 79l-43-31v401h-230V940zm498 84c88-36 133-111 140-229 3-65 0-91-17-137-69-182-288-194-369-19-22 46-26 71-26 136 0 123 44 207 129 246 49 23 94 24 143 3zm-5780 190c-167-40-291-159-333-319-42-163 4-335 120-444 215-204 596-164 749 77 88 139 89 354 2 490-37 58-121 131-189 162-107 51-232 63-349 34zm198-189c109-32 178-129 178-250 0-122-68-216-182-252-102-32-216 14-277 112-28 45-30 56-30 139 0 81 3 96 28 138 41 71 129 124 208 127 14 1 48-6 75-14zm852 189c-85-20-155-60-218-123-216-216-152-592 123-722 83-39 156-52 257-46 265 15 440 195 440 452 0 222-126 383-345 440-72 18-180 18-257-1zm201-190c101-30 181-140 181-249 0-91-63-195-144-237-54-29-154-31-211-3-90 44-145 135-145 240 0 121 64 210 179 251 48 17 77 17 140-2zm2242 190c-133-36-238-122-293-241-26-56-32-81-36-165-8-160 25-263 114-358 109-117 293-160 460-109 57 18 77 31 129 82 83 83 107 144 113 290l4 107h-296c-333 0-314-5-277 75 34 76 141 145 226 145 47 0 143-33 193-66 30-20 55-34 56-32 37 55 86 142 86 152 0 29-128 99-222 121-79 18-187 18-257-1zm259-576c0-36-42-100-79-122-92-53-240 12-266 117l-7 27h176c176 0 176 0 176-22zm755 581c-181-37-315-177-344-359-6-37-11-237-11-462V0h229l3 418c3 414 3 417 26 465 54 108 182 155 316 115 53-16 118-81 134-134 9-30 12-156 12-453V0h242l-4 438c-5 492-5 491-81 604-48 72-131 133-217 162-66 21-233 30-305 15zM0 604V-2l268 4c304 4 338 11 426 90 114 100 148 295 77 444-28 60-91 126-131 139-22 7-22 7-2 28 11 12 48 78 82 146 35 68 72 133 82 143s32 18 53 18h35v202l-109-4c-106-3-111-4-141-33-18-17-70-106-120-206-49-96-96-182-105-189-10-8-51-15-101-18l-84-5v453H0V604zm490-66c62-42 75-71 75-158 0-85-12-112-69-154-23-18-45-21-147-24l-119-4v362h114c101 0 117-2 146-22zm2600 67V0h220v640h48c26 0 57-7 68-15 12-8 61-75 109-150l87-135h124c68 0 124 3 124 6 0 9-241 363-256 375-12 10-10 17 9 43 13 17 46 74 72 126 63 121 72 130 135 130h50v192l-125-4c-153-4-143 4-250-198-42-80-83-151-90-159-7-7-34-16-59-18l-46-6v383h-220V605zm988 590c-17-10-31-29-37-53-7-22-11-186-11-419V340h230l2 338 3 337 48 3 47 3v189h-127c-93-1-135-5-155-15zm15-970c-17-7-39-27-47-44-56-108 49-221 154-166 42 22 60 53 60 105 0 54-20 87-66 106-41 17-60 17-101-1z" fill="#fff"/></svg>