<svg xmlns="http://www.w3.org/2000/svg" viewBox="0 0 145.75 145.75"><path fill="#f4ba27" d="M64.06 45.33h15.18a.93.93 0 0 0 .8-1.39L55.63 1.58a.93.93 0 0 0-1.59 0l-42 68a.93.93 0 0 0 .82 1.42h7a.93.93 0 0 1 .8 1.39L6 97.86a.93.93 0 0 0 .8 1.39h10.77a.93.93 0 0 1 .78 1.42L1.84 127a.93.93 0 0 0 .78 1.42h28.21a.93.93 0 0 1 .93.93v14a.93.93 0 0 0 .93.93h13.14a.93.93 0 0 0 .93-.93v-29a.93.93 0 0 0-.93-.93H29.74A.93.93 0 0 1 29 112l16.46-26.33a.93.93 0 0 0-.78-1.42h-12a.93.93 0 0 1-.8-1.39l14.61-25.47a.93.93 0 0 0-.8-1.39h-5.96a.93.93 0 0 1-.79-1.41L53.6 30.84a.93.93 0 0 1 1.59 0l8.07 14a.93.93 0 0 0 .8.49z"/><path d="M143.55 91.94h-11.19a.93.93 0 0 1-.93-.93v-33.7a.93.93 0 0 0-.93-.93h-14.93a.93.93 0 0 0-.93.93V91a.93.93 0 0 1-.93.93h-8.78a.93.93 0 0 1-.81-.47l-19.48-34.6a.93.93 0 0 0-.81-.47H68.51a.93.93 0 0 0-.93.93V91a.93.93 0 0 1-.93.93H55.47a.93.93 0 0 0-.93.93v14.94a.93.93 0 0 0 .93.93h11.19a.93.93 0 0 1 .93.93v33.7a.93.93 0 0 0 .93.93h14.93a.93.93 0 0 0 .93-.93v-33.7a.93.93 0 0 1 .93-.93h8.75a.93.93 0 0 1 .81.47l19.52 34.61a.93.93 0 0 0 .81.47h15.32a.93.93 0 0 0 .93-.93v-33.7a.93.93 0 0 1 .93-.93h11.19a.93.93 0 0 0 .93-.93V92.87a.93.93 0 0 0-.95-.93z" fill="#fff"/><path fill="#f4ba27" d="M104.64 1.56L86.8 30.46a.93.93 0 0 0 0 1L94.27 44a.93.93 0 0 0 1.58 0l8.35-13.23a.93.93 0 0 1 1.58 0l8.08 14a.93.93 0 0 0 .8.46h15.18a.93.93 0 0 0 .8-1.39L106.23 1.58a.93.93 0 0 0-1.59-.02z"/></svg>