<svg xmlns="http://www.w3.org/2000/svg" viewBox="0 0 972.11 969.89"><defs><style>.cls-1{fill:#fff}</style></defs><path class="cls-1" d="M608 513.69a6.6 6.6 0 1 0 8.33 4.21 6.59 6.59 0 0 0-8.33-4.21zm12.72 33.88a6.6 6.6 0 1 0-8.33-4.22 6.6 6.6 0 0 0 8.33 4.22zm27.56-42.67a6.61 6.61 0 1 0-8.34-4.21 6.61 6.61 0 0 0 8.34 4.21zm8.58 21.33a6.6 6.6 0 1 0-8.33-4.21 6.61 6.61 0 0 0 8.33 4.21zm8.59 21.34a6.6 6.6 0 1 0-8.33-4.22 6.61 6.61 0 0 0 8.33 4.22zm27.78-42.67a6.61 6.61 0 1 0-8.34-4.21 6.61 6.61 0 0 0 8.34 4.21zm8.59 21.33a6.6 6.6 0 1 0-8.34-4.21 6.6 6.6 0 0 0 8.34 4.21zm7.4 22.52a6.6 6.6 0 1 0-8.34-4.21 6.6 6.6 0 0 0 8.34 4.21zM596.56 394a6.6 6.6 0 1 0-4.21 8.33 6.6 6.6 0 0 0 4.21-8.33zm3.19 29.68a6.61 6.61 0 1 0-8.34-4.21 6.61 6.61 0 0 0 8.34 4.21zm7.4 21.32a6.61 6.61 0 1 0-8.34-4.21 6.6 6.6 0 0 0 8.34 4.21zm15.99 48.62a6.6 6.6 0 1 0-8.34-4.21 6.61 6.61 0 0 0 8.34 4.21zm6.21 21.38a6.6 6.6 0 1 0-8.33-4.21 6.59 6.59 0 0 0 8.33 4.21zm8.59 22.47a6.6 6.6 0 1 0-8.33-4.21 6.59 6.59 0 0 0 8.33 4.21zm28.84-43.85a6.6 6.6 0 1 0-8.33-4.21 6.6 6.6 0 0 0 8.33 4.21zm8.59 21.38a6.6 6.6 0 1 0-8.33-4.21 6.59 6.59 0 0 0 8.33 4.21zm7.4 22.47a6.6 6.6 0 1 0-8.33-4.21 6.59 6.59 0 0 0 8.33 4.21zm23.83-56.4a6.6 6.6 0 1 0 8.33 4.21 6.6 6.6 0 0 0-8.33-4.21zm9.78 21.33a6.6 6.6 0 1 0 8.33 4.22 6.61 6.61 0 0 0-8.33-4.22zm3.19 30.86a6.6 6.6 0 1 0 4.21-8.33 6.59 6.59 0 0 0-4.21 8.33zM617.88 412.14a6.6 6.6 0 1 0-8.34-4.21 6.6 6.6 0 0 0 8.34 4.21zm7.4 22.23a6.6 6.6 0 1 0-8.34-4.22 6.61 6.61 0 0 0 8.34 4.22zm14.08-60.92a7.14 7.14 0 0 0 7.14 7.14H661a7.14 7.14 0 0 0 0-14.28h-14.5a7.14 7.14 0 0 0-7.14 7.14zm44.57-7.14a7.14 7.14 0 1 0 0 14.28h.6a7.14 7.14 0 0 0 0-14.28z"/><path class="cls-1" d="M695.56 569.91a7.14 7.14 0 1 0 0-14.28h-.43a6.6 6.6 0 1 0-12.1-1 6.91 6.91 0 0 0 .44 1h-32a6.6 6.6 0 1 0-12.1-1 6.94 6.94 0 0 0 .45 1h-32.76a6.6 6.6 0 1 0-12.27-.71c.09.24.18.48.29.71h-29.7l6.06-6.91a6.59 6.59 0 0 0 8.43-8.3 6.68 6.68 0 0 0-.37-.87l6.3-7.18a5.8 5.8 0 0 0 .21.82 6.6 6.6 0 1 0 6.67-8.65l8.28-9.43a8.1 8.1 0 0 0 1.3-1.91 7.08 7.08 0 0 0 .88-6.27l-1-2.91a6.42 6.42 0 0 0 2.55-.31 6.6 6.6 0 0 0-4.12-12.55 6.79 6.79 0 0 0-2.29 1.3l-3.78-11.35a6.59 6.59 0 0 0 10.84-4.21h25.69a6.43 6.43 0 0 0 .28 1.27 6.6 6.6 0 0 0 12.82-1.27h33a6.43 6.43 0 0 0 .28 1.27 6.6 6.6 0 0 0 12.82-1.27h6.76a7.15 7.15 0 0 0 0-14.29H618.5a6.6 6.6 0 1 0-12.61 0h-17.52l-2.06-6.18a6.6 6.6 0 1 0-.51-12.68 6.49 6.49 0 0 0-3 2.07l-3.92-11.76a6.61 6.61 0 1 0-2.88-12.84 6.55 6.55 0 0 0-1.26.57l-3-9a6.6 6.6 0 1 0-2-12.87 6.48 6.48 0 0 0-2 1.07l-3.67-11a6.6 6.6 0 0 0 4.21-8.34 6.69 6.69 0 0 0-.42-1h9.65a6.37 6.37 0 0 0 1.95 0h43.36a7.14 7.14 0 1 0 0-14.28h-66.55L540 317.61a7.14 7.14 0 0 0-6.77-4.89H363c-3.95 0-3.35 3.84-2.08 7.69s3.87 6.6 7.81 6.6h159.4L543.76 374a7.16 7.16 0 0 0 1.13 3.38l31 93.1a7 7 0 0 0 1 3l9.53 28.59H420.14c-2.5-.05-3.1 3-2.21 7.14.84 3.85 3.2 7.14 7.15 7.14h100.2l17.1 48.65a7.14 7.14 0 0 0 5.41 4.65l.43.06a7.33 7.33 0 0 0 1.7.22h145.64zm-154-53.37l30.41-.21h7.81L552.37 548zm174.84 53.37h11.31a7.14 7.14 0 0 0 0-14.28H716.4a7.14 7.14 0 1 0 0 14.28zm37.49-11.1a7.79 7.79 0 0 0-.89-1.1 7.25 7.25 0 0 0-6.45-2 8 8 0 0 0-1.34.42 6.87 6.87 0 0 0-1.23.65 6.8 6.8 0 0 0-2 2 7 7 0 0 0-1.06 2.56 6.61 6.61 0 0 0 0 2.8 6.35 6.35 0 0 0 .4 1.33 6.71 6.71 0 0 0 .66 1.24 7.1 7.1 0 0 0 .89 1.08 6.7 6.7 0 0 0 1.08.9 7.58 7.58 0 0 0 1.23.65 8 8 0 0 0 1.34.41 7.3 7.3 0 0 0 1.4.14 7.19 7.19 0 0 0 5.94-3.18 8.12 8.12 0 0 0 .65-1.24 7.86 7.86 0 0 0 .41-1.33 7.07 7.07 0 0 0 0-2.8 7.86 7.86 0 0 0-.41-1.33 7.58 7.58 0 0 0-.62-1.2zM425.58 800.92c14.39-7 25.07-16.72 32.65-29.68A7.14 7.14 0 0 0 445.9 764c-6.2 10.59-14.65 18.23-26.58 24.05a7.14 7.14 0 0 0 3.13 13.57 7 7 0 0 0 3.13-.7zm290.54-338.31h-.34a7.15 7.15 0 1 0 0 14.29h.34a7.15 7.15 0 0 0 0-14.29zM341.24 314.07q-1.87 4.2-4 8.58-.19.38-.42.72l7.22 20.88a7.4 7.4 0 0 1-3.18 8.94 7.14 7.14 0 0 1-10.2-3.92l-18.94-54.78a7.41 7.41 0 0 1 3.17-8.95 7.13 7.13 0 0 1 7.5.38c2.51-6.58 4.47-12.61 6-18.09-5-6.16-17.47-8.72-24.29-5.35-6.63 3.27-12.68 12.83-10.09 19.76l87.53 231a2.8 2.8 0 0 0 1.48 1.58c4.52 2.08 15.33 6 15.33 6l9.26 3.26a1.41 1.41 0 0 0 1.81-1.75l-5.51-17.45-60.23-190.66a1.31 1.31 0 0 0-2.44-.15zm83.66 259.71a125.84 125.84 0 0 0-26.31-13.57l88.21 232.84c.49 1.32 3.14 2.93 4.47 2.48a3.83 3.83 0 0 0 2.39-4z"/><path class="cls-1" d="M526.42 394.32a1.1 1.1 0 0 0-.71-1.93h-45.58a1.12 1.12 0 0 1-1-.61l-21.37-43.53a1.1 1.1 0 0 0-2.07.32l-6.13 42.91a1.1 1.1 0 0 1-1.09.94h-44.63a1.1 1.1 0 0 0-.61 2l41.25 27.33a1.12 1.12 0 0 1 .48 1.08l-6.5 43.24a1.1 1.1 0 0 0 1.79 1l31.9-26.43a1.11 1.11 0 0 1 1.29-.08l40.71 26.19a1.1 1.1 0 0 0 1.58-1.41l-21.16-42.44a1.1 1.1 0 0 1 .27-1.32zm-200.69-81.8a7.13 7.13 0 0 0 9.53-3.33c34.13-70.72 14.84-94.49 14.16-95.77a7.14 7.14 0 0 0-12.6 6.74c.13.25 16.08 19.6-14.42 82.82a7.14 7.14 0 0 0 3.33 9.54zm76.87 221.67c-.48-.16-1.4-.42-3.92-1.13-1.86-.52-5.32-1.5-6-1.73a137.39 137.39 0 0 1-90.6-129.25c0-8.91 2-22.49 4-32.11a114.91 114.91 0 0 1 3.92-11.63 7.15 7.15 0 0 0-12.94-6.07c-1.89 4-4.51 13-4.8 14 0 .18-.1.37-.14.55-2 9.59-4.3 24.57-4.32 35.25a151.68 151.68 0 0 0 100 142.72c.88.32 2.77.86 6.95 2 1.54.43 2.86.8 3.24.92a137.29 137.29 0 0 1 90.49 157.53 113.9 113.9 0 0 1-4.19 12.26 7.14 7.14 0 0 0 12 7.81c1.82-2.72 4.28-10.38 6-16.33a5.73 5.73 0 0 0 .14-.56 151.55 151.55 0 0 0-99.83-174.23zM208.78 773.75l-25-25.37-61.34 60.46 14.66 14.87 20.47-20.19 1.32 1.34-7.49 33.36 17 17.27 6.45-35.84c12.32 7.51 25.43 3.89 34.15-4.71 10.25-10.09 14-26.77-.22-41.19zm-14.6 26.15c-3.65 3.59-9.32 5.67-14.15.78l-9.65-9.79 15-14.83 9.66 9.79c4.86 4.89 2.79 10.45-.86 14.05zm16.44 87.88l48.65 29.7 9.51-15.58-30.84-18.82 7.95-13.02 26.25 16.03 9.31-15.26-26.25-16.02 8.6-14.09 29.88 18.24 9.51-15.58-47.7-29.11-44.87 73.51zm157.61-19.93l-34-10.52-25.43 82.29 19.94 6.17 8.49-27.47 14.1 4.35c19.34 6 32.35-4.78 36.63-18.64s-.38-30.2-19.73-36.18zm-.49 29.95c-1.51 4.89-5.53 9.41-12.09 7.38l-13.14-4.06 6.24-20.19 13.13 4.07c6.57 2 7.37 7.9 5.86 12.8zM468.71 938a13 13 0 0 1-26-1.29l2.72-54.69-21-1-2.72 54.68c-1 19.85 14.49 33.27 32.35 34.15s34.58-10.92 35.57-30.77l2.72-54.68-21-1zm115.54-25.65c9-4.42 9.76-14.1 8.89-18.89-2.48-13.65-14.35-20.9-30.09-18l-34.68 6.31 15.4 84.73 37.14-6.75c20.67-3.75 25.6-17.86 23.36-30.16-1.47-8.16-8.15-17.59-20.02-17.24zm-32-16.42l11.31-2.06c4.92-.89 7.49 2.07 8.3 6.5s-1.68 7.54-5.86 8.3l-11.07 2zm22 46.43l-13.16 2.39-3.09-17.22 13-2.37c6.88-1.25 10.42 2.81 11.13 6.75.87 4.3-1.4 9.29-7.8 10.45zm95.88-28.89l-26.62-62.43-19.43 8.29 33.78 79.21 47.94-20.44-7.16-16.79-28.51 12.16z"/><path class="cls-1" transform="rotate(-33.51 731.82792 852.47673)" d="M721.3 809.35h20.87v86.12H721.3z"/><path class="cls-1" d="M827.9 785.93a22.86 22.86 0 0 1-38.45 21.44c-9.18-9-9.56-23.43-.62-32.52a22.87 22.87 0 0 1 21.34-6.19s3.24-19.39 3.53-20.89a44.28 44.28 0 1 0 34.77 34.37zm-14.2-38.16c.03-.14.03-.12 0 0zM35.07 375.42l65.56 17.55 5.4-20.16-65.56-17.56 5.75-21.49-17.63-4.72-16.91 63.15 17.63 4.72 5.76-21.49zm115.46-105.89l-16.22-8.38-16.57 32.1-13.55-7 14.11-27.32-15.88-8.2-14.11 27.32-14.66-7.57 16.06-31.1-16.22-8.37-25.64 49.64 76.53 39.52 26.15-50.64zm13.55-22.63l16.23-18.36-10.16-32.5 33.42 6.18 16.3-18.45-53.98-8.01-12.21-47.15-16.55 18.73 8.2 26.77-27.49-4.95-16.72 18.92 48.3 6.32 14.66 52.5zm88.43-87.4L247.9 139l22.8-14.7 16.79 12.67 18.6-12-73.25-55.26L213.72 82l20 89.58zm3.92-47.44l-13.55 8.73-8.87-28zm83.06-36.8l10.68.09c9.09.08 10 2.81 10.4 4.12 1.65 5.11-2.61 9-7.72 10.65-6.9 2.23-11-.37-12.69-4.7l-20.1 6.51c5 15.46 20.13 21.6 38.45 15.67 13.79-4.47 28.09-16.72 22.23-34.8-1.88-5.82-7.12-17.92-30.8-17.61l-10.35.07c-7.83.17-9.27-2.65-9.77-4.2-1.27-3.92 1.21-7.61 6.56-9.35 6.06-2 9.6.44 11 4.84l19.86-6.43C362 24 347 18.44 330.8 23.68c-16.41 5.32-25.38 19.39-20.53 34.37 2.43 7.49 9.29 18.15 29.22 17.21zm147.87 11.49l20.86.63 2.04-67.84 22.24.67.55-18.24L467.71 0l-.55 18.24 22.24.67-2.04 67.84zm105.02-20.56l25.26 7.13-9.09 32.24 20.45 5.77 23.37-82.89-20.45-5.77-9.23 32.72-25.26-7.12 9.23-32.72-20.09-5.67-23.38 82.89 20.09 5.66 9.1-32.24zm104.79 47.2l1.61 1 .87 34.17 20.72 12.6-2.49-36.33c13.78 4.28 25.61-2.42 32-12.89 7.47-12.28 7-29.37-10.27-39.89l-30.44-18.5-44.77 73.57L682.24 138zM717.49 80l11.75 7.14c5.88 3.57 5.22 9.47 2.56 13.85s-7.65 7.78-13.53 4.21L706.52 98zm68.95 144.53l13.09-12.72-25.19-25.9 10.93-10.63 21.44 22.04 12.81-12.46-21.44-22.05 11.83-11.5 24.4 25.09 13.08-12.73-38.96-40.05-61.73 60.05 39.74 40.86zm27.66 38.23l20.68-3.89 13.89 23.3-13.25 16.34 11.33 19 57.78-71.27-11.65-19.54-90.24 16.83zm67.36-16.15l-20.08 21.73-8.26-13.85zm-13.59 130.04c7.57 23.69 29.53 31.64 52.75 24.22s36.86-26.74 29.29-50.43l-10.39-32.51-82 26.21zm60.3-33l4 12.51c3.69 11.55-5.76 21-17.9 24.87s-25 1.55-28.66-10l-4-12.5zM968 496.06c-9.64 0-19.28-.07-28.93-.05a1.76 1.76 0 0 1-2-1.44c-3.24-10-6.54-19.93-9.83-29.89a3.35 3.35 0 0 0-.9-1.57c-1 3.16-2.11 6.32-3.15 9.48-2.38 7.23-4.8 14.45-7.11 21.71a2.05 2.05 0 0 1-2.32 1.72c-10.45 0-20.89 0-31.33.08h-1.87c.6.54.89.85 1.23 1.1 8.55 6.27 17.09 12.55 25.67 18.76a1.83 1.83 0 0 1 .76 2.49c-3.25 10-6.43 20-9.62 30-.16.49-.26 1-.48 1.91l4.3-3.07q11.46-8.26 22.92-16.55a1.68 1.68 0 0 1 2.36 0q12.66 9.21 25.39 18.33c.51.36 1 .72 1.54 1.07l.28-.17c-.88-2.77-1.75-5.54-2.64-8.31-2.47-7.7-4.91-15.42-7.44-23.11a2 2 0 0 1 .9-2.61c8.45-6.12 16.85-12.31 25.27-18.49a2.77 2.77 0 0 0 1.08-1.33zm-65.14 159.53a1.76 1.76 0 0 1-2-1.44c-3.24-10-6.54-19.93-9.82-29.89a3.51 3.51 0 0 0-.91-1.57l-3.13 9.48c-2.38 7.23-4.79 14.46-7.11 21.71a2 2 0 0 1-2.32 1.72c-10.44 0-20.89 0-31.33.09h-1.87c.6.53.89.84 1.23 1.09q12.83 9.4 25.67 18.77A1.83 1.83 0 0 1 872 678c-3.26 10-6.44 20-9.63 30-.16.49-.26 1-.48 1.91l4.3-3.07c7.65-5.51 15.31-11 22.93-16.55a1.66 1.66 0 0 1 2.35 0c8.44 6.14 16.92 12.22 25.39 18.32.51.37 1 .72 1.54 1.08l.28-.18c-.88-2.77-1.75-5.54-2.64-8.3-2.47-7.71-4.91-15.43-7.44-23.11a2 2 0 0 1 .9-2.61c8.45-6.13 16.86-12.32 25.27-18.49a2.87 2.87 0 0 0 1.08-1.33h-4.07c-9.64-.05-19.28-.1-28.92-.08zM46.74 530.7q11.43 8.3 22.93 16.55l4.3 3.07c-.23-.91-.33-1.42-.48-1.91-3.2-10-6.38-20-9.63-30a1.83 1.83 0 0 1 .76-2.49c8.59-6.21 17.12-12.49 25.67-18.76.34-.25.63-.56 1.23-1.1h-1.87c-10.44 0-20.88-.11-31.32-.08A2 2 0 0 1 56 494.3c-2.32-7.26-4.74-14.48-7.12-21.71-1-3.16-2.1-6.32-3.14-9.48a3.29 3.29 0 0 0-.91 1.57c-3.29 10-6.59 19.92-9.83 29.89a1.76 1.76 0 0 1-2 1.43c-9.64 0-19.29 0-28.93.05H0a2.83 2.83 0 0 0 1.08 1.33c8.42 6.18 16.82 12.37 25.27 18.49a1.94 1.94 0 0 1 .9 2.61c-2.53 7.69-5 15.41-7.44 23.11l-2.64 8.31.28.17c.52-.35 1-.71 1.54-1.07q12.71-9.15 25.39-18.33a1.68 1.68 0 0 1 2.36.03zM100.12 678a1.82 1.82 0 0 1 .76-2.48q12.87-9.33 25.67-18.77c.34-.25.63-.56 1.23-1.09h-1.87c-10.44 0-20.89-.11-31.33-.09a2 2 0 0 1-2.32-1.72c-2.32-7.25-4.73-14.48-7.11-21.71-1-3.16-2.1-6.32-3.15-9.48a3.51 3.51 0 0 0-.91 1.57c-3.28 10-6.58 19.92-9.82 29.89a1.76 1.76 0 0 1-2 1.44c-9.65 0-19.29 0-28.93.06h-4.08a2.87 2.87 0 0 0 1.08 1.38c8.42 6.17 16.82 12.36 25.27 18.49a2 2 0 0 1 .9 2.61c-2.53 7.68-5 15.4-7.44 23.11-.89 2.76-1.76 5.53-2.64 8.3l.28.18c.51-.36 1-.71 1.54-1.08 8.47-6.1 17-12.18 25.39-18.32a1.66 1.66 0 0 1 2.35 0c7.62 5.55 15.28 11 22.93 16.55l4.3 3.07c-.22-.91-.32-1.42-.48-1.91-3.19-10-6.37-20-9.62-30z"/></svg>