<svg width="302" height="213" fill="none" xmlns="http://www.w3.org/2000/svg"><path d="M41.52 204.674a884.254 884.254 0 00-.046 7.686H0v-14.188h41.566c0 2.085-.023 4.309-.046 6.502z" fill="#fff"/><path d="M77.13 198.172h-8.41v14.188h8.41v-14.188z" fill="#fff"/><path d="M59.344 198.172h-8.409v14.188h8.41v-14.188z" fill="#fff"/><path d="M210.359 0v51.59h8.701l6.656 7.832 6.456-7.832H302V0h-91.641zm34.326 35.486l-6.487 6.563-16.117-15.95 16.056-16.497 6.602 6.448-9.661 9.926 9.607 9.51zm12.59 6.094l-8.793-2.801 9.139-28.769 8.793 2.8-9.139 28.77zm20.522.407l-6.603-6.447 9.662-9.926-9.608-9.51 6.487-6.563 16.118 15.95-16.056 16.496z" fill="#D0D6FC"/><path d="M86.499 68.586V212.36h186.77V68.586H86.499zm94.369 81.143c-3.236-.53-5.842-3.139-6.372-6.378-.876-5.34 3.674-9.895 9.008-9.018 3.236.531 5.841 3.14 6.372 6.379a7.804 7.804 0 01-9.008 9.017z" fill="#fff"/></svg>