<svg width="255" height="256" fill="none" xmlns="http://www.w3.org/2000/svg"><circle cx="127.106" cy="128" r="127.106" fill="#050AFF"/><g clip-path="url(#clip0)" fill="#fff"><path d="M120.679 91.605c-5.739-.377-11.278 1.516-15.6 5.329a21.523 21.523 0 00-7.18 13.727 2.46 2.46 0 00-.87-.071l-9.012.912c10.424-7.594 17.156-20.18 17.808-34.142 12.686 4.82 31.38 5.122 51.057.706a132.344 132.344 0 0014.648-4.181 58.759 58.759 0 019.566 15.526c-3.549-3.507-8.31-5.805-13.656-6.156-11.841-.782-22.113 8.278-22.887 20.194a21.917 21.917 0 00.067 3.593l-4.559.589c-2.32-8.719-9.946-15.405-19.382-16.026z"/><path d="M135.846 114.304c-.599 9.19-8.52 16.183-17.657 15.58-4.425-.292-8.475-2.298-11.403-5.657a16.66 16.66 0 01-4.085-12.109c.29-4.451 2.284-8.525 5.623-11.47 3.058-2.698 6.902-4.15 10.929-4.15.367 0 .738.013 1.109.035 9.132.612 16.083 8.58 15.484 17.771z"/><path d="M123.303 52c10.285 0 19.994 2.392 28.545 6.623a123.144 123.144 0 01-16.99 2.348c-1.354.09-2.378 1.272-2.289 2.635a2.464 2.464 0 002.45 2.306c.053 0 .112 0 .165-.004 2.365-.162 4.774-.392 7.157-.688a127.112 127.112 0 0015.837-3 62.014 62.014 0 019.637 7.703 128.961 128.961 0 01-12.011 3.319c-20.226 4.541-39.899 3.835-51.338-1.849a2.411 2.411 0 00-.795-.233c-1.998-1.372-7.63-5.841-13.066-10.284C100.108 55.251 111.314 52 123.303 52z"/><path d="M158.522 119.762a11.422 11.422 0 00-2.619-1.668 16.756 16.756 0 01-6.442-14.321c.573-8.822 7.894-15.617 16.562-15.617.362 0 .728.014 1.095.036 9.141.603 16.088 8.57 15.489 17.762-.599 9.195-8.525 16.182-17.657 15.58a16.488 16.488 0 01-6.428-1.772z"/><path d="M174.932 188.222v-4.025c0-1.367-1.1-2.473-2.459-2.473a2.464 2.464 0 00-2.458 2.473v6.831c0 .332.067.652.187.944a78.242 78.242 0 01-9.945 6.183v-2.267c0-1.367-1.1-2.473-2.459-2.473a2.464 2.464 0 00-2.458 2.473v4.609a75.587 75.587 0 01-9.857 3.499v-18.827a56.565 56.565 0 009.857-4.173v5.22a2.464 2.464 0 002.458 2.473 2.465 2.465 0 002.459-2.473v-8.192a61.823 61.823 0 009.758-8.148v3.3a2.465 2.465 0 002.458 2.474 2.466 2.466 0 002.459-2.474v-8.966a67.266 67.266 0 009.44-16.835v31.211a77.32 77.32 0 01-9.44 9.636z"/><path d="M195.225 115.761a10.115 10.115 0 01-5.538 4.046l.604-8.111c.04-.18.067-.369.067-.562 0-3.768-.345-7.456-1.002-11.048a10.222 10.222 0 017.47 8.012c.5 2.685-.067 5.405-1.601 7.663z"/><path d="M90.364 179.809a2.469 2.469 0 01-2.459 2.468H87.9a2.47 2.47 0 01-2.454-2.477c.023-9.51.01-31.04.005-41.305a13.996 13.996 0 01-9.655 1.902l.2 25.351a2.465 2.465 0 01-2.44 2.491h-.018a2.466 2.466 0 01-2.458-2.455l-.215-27.208a14.182 14.182 0 01-6.861-12.154c0-7.127 5.261-13.04 12.082-14.02a2.53 2.53 0 01.747-.446c14.384-5.314 24.062-20.045 24.12-36.678-.532-.355-1.1-.778-1.716-1.245-1.377-1.03-3.255-2.496-5.588-4.357a716.098 716.098 0 01-7.389-5.985c-15.216 10.787-25.09 28.036-25.09 47.438 0 .319-.063.625-.17.904v60.631a77.877 77.877 0 0010.08 12.118v-7.478c0-1.367 1.1-2.473 2.458-2.473a2.464 2.464 0 012.459 2.473v11.898a77.78 77.78 0 009.463 6.691v-6.219c0-1.367 1.1-2.473 2.458-2.473a2.464 2.464 0 012.459 2.473v8.926a77.272 77.272 0 009.512 4.024v-23.768a57.428 57.428 0 01-9.517-7.788c0 3.399-.004 6.425-.008 8.741zM70.145 99.632c3.442-3.31 6.75-6.997 9.843-10.95a108.103 108.103 0 008.077-11.861 2.453 2.453 0 013.366-.873 2.48 2.48 0 01.867 3.386 113.556 113.556 0 01-8.448 12.402c-3.232 4.136-6.7 7.994-10.308 11.466a2.446 2.446 0 01-3.478-.077 2.482 2.482 0 01.08-3.493z"/><path d="M166.05 126.516a21.29 21.29 0 01-3.661-.31c.505 2.293.34 4.753-.63 7.077a11.61 11.61 0 01-6.343 6.309c-1.422.585-2.91.872-4.399.872-1.533 0-3.066-.31-4.519-.926l-5.61-2.374a2.481 2.481 0 01-1.314-3.238 2.452 2.452 0 013.218-1.322l5.61 2.375a6.67 6.67 0 005.159.027 6.708 6.708 0 003.665-3.647 6.78 6.78 0 00.027-5.189 6.8 6.8 0 00-1.592-2.343 21.242 21.242 0 01-2.315-1.488 2.61 2.61 0 01-.434-.319 21.77 21.77 0 01-7.245-10.135l-4.895.629a20.85 20.85 0 01-.036 2.104c-.742 11.435-10.232 20.239-21.465 20.239-.469 0-.943-.013-1.421-.045-5.74-.377-10.988-2.981-14.778-7.329a21.524 21.524 0 01-5.226-12.042c-.111.027-.228.05-.344.063L79.47 117.33a2.394 2.394 0 01-1.13-.153c-.09.009-.18.018-.273.018-5.051 0-9.164 4.137-9.164 9.218s4.112 9.218 9.164 9.218a9.117 9.117 0 007.728-4.263 2.45 2.45 0 013.397-.751 2.465 2.465 0 011.091 1.677c.04.176.063.355.063.544 0 .239.013 16.619.013 30.873.04.045.09.081.13.131 8.421 10.297 19.999 16.862 32.608 18.489 29.221 3.768 56.358-19.506 60.484-51.885l.773-6.066v-8.174c-3.799 6.218-10.643 10.31-18.304 10.31zm-59.232 38.585l-1.319 1.542a2.448 2.448 0 01-1.864.859c-.568 0-1.14-.198-1.605-.598a2.486 2.486 0 01-.259-3.489l1.319-1.543a2.451 2.451 0 013.468-.261 2.487 2.487 0 01.26 3.49zm8.622 4.919l-.988 1.992a2.452 2.452 0 01-3.298 1.106 2.478 2.478 0 01-1.1-3.318l.988-1.992a2.451 2.451 0 013.299-1.107 2.479 2.479 0 011.099 3.319zm33.069-27.033a2.458 2.458 0 012.714 2.185l.196 1.79a2.467 2.467 0 01-2.445 2.743 2.462 2.462 0 01-2.44-2.199l-.197-1.79c-.147-1.358.823-2.581 2.172-2.729zm-11.036 3.912l.25-1.826a2.455 2.455 0 012.767-2.113 2.465 2.465 0 012.101 2.783l-.25 1.826a2.463 2.463 0 01-2.767 2.113c-1.346-.18-2.284-1.43-2.101-2.783zm-9.181-.549l.697-1.825a2.457 2.457 0 013.174-1.426 2.48 2.48 0 011.417 3.193l-.698 1.825a2.456 2.456 0 01-2.297 1.588c-.291 0-.59-.054-.881-.167-1.265-.481-1.9-1.911-1.412-3.188zm13.664 28.517c-4.295 1.551-9.36 2.361-14.594 2.361-1.48 0-2.968-.063-4.461-.194a2.463 2.463 0 01-2.235-2.679 2.458 2.458 0 012.664-2.249c5.999.526 12.181-.166 16.968-1.893a2.453 2.453 0 013.142 1.493 2.474 2.474 0 01-1.484 3.161zm-9.436-13.13c-1.05 0-2.114-.045-3.173-.112a10.625 10.625 0 01-1.341 2.549 2.455 2.455 0 01-1.994 1.026 2.43 2.43 0 01-1.435-.468 2.483 2.483 0 01-.554-3.453 5.55 5.55 0 001.032-2.883 5.497 5.497 0 00-.192-1.875 2.473 2.473 0 011.703-3.048 2.455 2.455 0 013.031 1.713c.138.504.237 1.016.299 1.529 5.548.31 11.149-.4 15.56-1.992a2.454 2.454 0 013.143 1.493 2.473 2.473 0 01-1.484 3.161c-4.3 1.551-9.36 2.36-14.595 2.36zm19.691 10.032a2.448 2.448 0 01-3.299-1.106l-.988-1.992a2.478 2.478 0 011.099-3.318 2.45 2.45 0 013.299 1.106l.988 1.992a2.48 2.48 0 01-1.099 3.318z"/></g><defs><clipPath id="clip0"><path fill="#fff" d="M61 52h136v152H61z"/></clipPath></defs></svg>