<svg width="267" height="196" fill="none" xmlns="http://www.w3.org/2000/svg"><path d="M32.051 122.57c-3.692-.009-6.917 2.291-8.01 5.719-1.304 4.047-5.2 6.629-9.48 6.256-4.29-.354-7.845-3.819-8.268-8.056a8.83 8.83 0 011.25-5.556 8.256 8.256 0 00.009-8.592 8.892 8.892 0 01-1.231-5.556c.44-4.237 4.005-7.692 8.295-8.038.257-.018.524-.027.78-.027 3.97.009 7.478 2.519 8.691 6.319 1.093 3.428 4.308 5.729 8.001 5.738l21.037.027c3.289 0 5.953 2.655 5.953 5.91 0 3.256-2.683 5.892-5.972 5.892l-21.055-.036z" fill="#fff"/><path d="M254.111 107.631c3.987.009 7.221 3.219 7.211 7.156-.009 3.937-3.252 7.147-7.229 7.138l-24.078-.036c-3.986-.01-7.22-3.219-7.211-7.156.009-3.947 3.252-7.147 7.23-7.138l23.287.027.79.009z" fill="#fff"/><path d="M254.056 146.166l-24.078-.037c-3.987-.009-7.22-3.219-7.211-7.156.009-3.946 3.252-7.147 7.23-7.138l24.077.037c3.987.009 7.221 3.219 7.211 7.156 0 3.937-3.242 7.138-7.229 7.138z" fill="#fff"/><path d="M250.014 170.389l-19.264-.027c-3.987-.009-7.221-3.219-7.211-7.156.009-3.946 3.252-7.147 7.229-7.138l19.264.027c3.987.009 7.22 3.219 7.211 7.156 0 3.938-3.252 7.147-7.229 7.138z" fill="#fff"/><path d="M230.475 76.615l11.639.019c2.664 0 4.814 2.136 4.814 4.773a4.73 4.73 0 01-1.415 3.374 4.82 4.82 0 01-3.408 1.39l-11.639-.017a7.664 7.664 0 00-5.392 2.21 7.444 7.444 0 00-2.242 5.328c0 2.41 1.975 4.373 4.41 4.373h2.811l23.287.028c3.757.009 7.175-1.5 9.646-3.947A13.403 13.403 0 00267 84.608c.009-7.447-6.1-13.503-13.614-13.512l-50.901-.064c-2.664 0-4.814-2.136-4.814-4.773l.074-54.666C197.754 5.22 192.518.027 186.078.018h-.037l-.009 6.62c0 1.318-.542 2.51-1.415 3.364a4.82 4.82 0 01-3.408 1.391c-2.664 0-4.813-2.137-4.813-4.773l.009-6.62h-2.012l-.046 34.534v.155l7.634.009c2.664 0 4.813 2.137 4.813 4.774 0 1.318-.542 2.51-1.414 3.364a4.822 4.822 0 01-3.408 1.391l-8.553-.009a46.235 46.235 0 01-.606 2.737c-.23.9-.478 1.8-.753 2.691-1.562 5.056-3.941 9.848-7.037 14.267-.175.245-.34.5-.514.755a48.858 48.858 0 01-2.701 3.382 53.21 53.21 0 01-2.958 3.137 52.72 52.72 0 01-6.624 5.474c-.165.118-.78.618-1.58 1.236-.128.1-.275.21-.413.319-.992.755-2.186 1.61-3.151 2.118a5.965 5.965 0 01-.762.346c-.542.19-1.084.4-1.617.618a42.59 42.59 0 00-16.444 11.848c-.092.11-.183.218-.275.318a39.226 39.226 0 00-1.847 2.374 41.09 41.09 0 00-1.139 1.645 4.639 4.639 0 01-.799.937 4.88 4.88 0 01-3.261 1.246 4.8 4.8 0 01-2.6-.764c-2.232-1.428-2.875-4.383-1.433-6.592.147-.228.303-.437.45-.655a52.253 52.253 0 015.742-7.083l-38.234-.055a27.178 27.178 0 014.217 6.865c.303.718.579 1.446.817 2.191.12.373.23.746.34 1.128.625 2.273.956 4.665.956 7.129l-.046 35.752a26.678 26.678 0 01-2.95 12.148 27.507 27.507 0 01-2.737 4.292c-.082.1-.156.2-.238.3-.203.246-.395.491-.607.737l44.545.063a50.87 50.87 0 01-3.831-6.51 49.184 49.184 0 01-2.839-7.029 4.73 4.73 0 011.13-4.746 4.786 4.786 0 012.012-1.228c2.535-.791 5.245.6 6.045 3.11 2.967 9.311 9.195 17.376 17.536 22.704 7.515 4.801 16.233 7.102 25.198 6.647.083 0 .166-.009.248-.009l29.442.037c.083 0 .166 0 .249.009 1.681.091 3.352.081 5.015-.028a43.827 43.827 0 005.126-.627 16.955 16.955 0 01-.266-1.191c-.193-1-.303-2.028-.303-3.083 0-1.573.238-3.082.652-4.528.092-.327.202-.645.312-.964.211-.591.45-1.163.726-1.718a16.936 16.936 0 013.224-4.528 17.056 17.056 0 01-1.231-1.191c-.027-.037-.064-.064-.092-.101-2.719-2.964-4.381-6.883-4.372-11.193 0-1.982.358-3.882 1.01-5.646a16.63 16.63 0 01.625-1.455 16.863 16.863 0 013.684-5.001c-.202-.191-.405-.382-.597-.582a.727.727 0 01-.028-.027c-2.885-3.001-4.667-7.047-4.667-11.512 0-.991.101-1.955.267-2.891.193-1.082.487-2.137.882-3.137a17.023 17.023 0 013.141-5.047 14.132 14.132 0 01-1.672-1.936c-1.635-2.274-2.608-5.047-2.599-8.047.009-4.71 1.947-8.975 5.08-12.067a17.285 17.285 0 0112.208-4.992zm-34.889 16.858c-1.525 9.766-6.798 18.368-14.827 24.223a37.45 37.45 0 01-6.302 3.719c3.041 2.246 5.687 5.056 6.532 8.311.661 2.546-.891 5.147-3.473 5.801a5.02 5.02 0 01-1.203.155c-2.14 0-4.097-1.437-4.658-3.583-.459-1.764-6.219-5.546-11.629-7.638-2.077-.8-3.326-2.9-3.023-5.082.303-2.183 2.076-3.874 4.29-4.101a27.99 27.99 0 0013.734-5.256c5.971-4.355 9.884-10.757 11.023-18.013.405-2.6 2.867-4.382 5.494-3.982 2.645.409 4.446 2.837 4.042 5.446z" fill="#fff"/><path d="M32.106 179.973c-.01 8.774-7.211 15.876-16.076 15.867-8.865-.01-16.04-7.138-16.03-15.913.01-5.555 6.449-13.939 11.18-19.34 2.59-2.964 7.22-2.955 9.802.009 4.712 5.428 11.133 13.821 11.124 19.377z" fill="#D0D6FC"/><path d="M10.29 51.72a4.407 4.407 0 00-6.174-.01 4.29 4.29 0 00-.009 6.11l15.92 15.794a4.398 4.398 0 003.086 1.273h.01c1.166 0 2.26-.445 3.077-1.263a4.309 4.309 0 001.286-3.056c0-1.154-.45-2.236-1.277-3.055L10.29 51.72z" fill="#D0D6FC"/><path d="M78.167 39.09a4.407 4.407 0 00-6.173-.01L56.037 54.838a4.299 4.299 0 00-.01 6.11 4.398 4.398 0 003.087 1.273h.01c1.166 0 2.26-.445 3.077-1.263L78.158 45.2a4.29 4.29 0 00.009-6.11z" fill="#D0D6FC"/><path d="M40.668 21.495c-.01 0-.01 0 0 0-2.407 0-4.363 1.937-4.373 4.31l-.046 35.617c0 2.382 1.957 4.319 4.355 4.328h.009c1.167 0 2.26-.446 3.077-1.264a4.309 4.309 0 001.287-3.055l.045-35.616c0-2.374-1.956-4.32-4.354-4.32z" fill="#D0D6FC"/><path d="M81.501 137.591c-.01 9.639-7.946 17.467-17.684 17.458-9.737-.009-17.647-7.865-17.637-17.503l.009-5.42 6.88.01c8.599.009 15.599-6.902 15.617-15.413.018-8.51-6.972-15.439-15.57-15.457l-6.872-.009c.303-9.393 8.111-16.931 17.665-16.922 9.738.01 17.647 7.865 17.638 17.504l-.046 35.752z" fill="#D0D6FC"/></svg>