<svg width="268" height="214" fill="none" xmlns="http://www.w3.org/2000/svg"><path d="M253.662 127.955c-.034-31.985-12.576-62.062-35.305-84.685-22.735-22.623-52.85-35.02-84.853-34.885-65.815.254-119.3 54.528-119.227 120.977l.067 62.892a4.138 4.138 0 004.132 4.132h.006a4.144 4.144 0 004.132-4.138l-.067-64.045c-.033-29.775 11.579-57.796 32.7-78.905 21.074-21.063 49.026-32.649 78.726-32.649h.194c61.268.107 111.164 50.53 111.231 112.398l.067 62.953c0 1.105.435 2.143 1.212 2.92a4.114 4.114 0 002.92 1.205h.007a4.144 4.144 0 004.131-4.139l-.073-64.031z" fill="#fff"/><path d="M201.201 41.361c-2.25 2.887-6.369 3.583-9.389 1.514-17.137-11.72-37.086-17.868-58.093-17.841-20.793.02-40.562 6.101-57.571 17.64-3.027 2.056-7.146 1.353-9.382-1.547l-6.784-8.78c-2.464-3.188-1.708-7.769 1.614-10.046C82.858 7.716 107.629.027 133.685.002c26.325-.028 51.317 7.74 72.746 22.548 3.315 2.29 4.051 6.878 1.58 10.06l-6.81 8.752z" fill="#fff"/><path d="M233.707 213.109l-5.398.007a5.041 5.041 0 01-5.049-5.036l-.094-84.203c0-2.786 2.25-5.05 5.036-5.05l5.397-.007a5.043 5.043 0 015.05 5.037l.093 84.202a5.037 5.037 0 01-5.035 5.05z" fill="#fff"/><path d="M260.473 183.508l-23.586.027-.04-35.16 23.586-.027c4.165-.007 7.54 3.369 7.547 7.534l.02 20.078a7.526 7.526 0 01-7.527 7.548z" fill="#fff"/><path d="M210.228 118.922h-5.94c-13.34 0-24.148 10.816-24.148 24.15v45.989c0 13.341 10.815 24.15 24.148 24.15h5.94a7.705 7.705 0 007.707-7.708v-78.872a7.705 7.705 0 00-7.707-7.709zm-1.594 84.759c-.127 1.828-1.802 3.134-3.63 3.101a17.888 17.888 0 01-2.605-.235 3.351 3.351 0 01-2.672-4.225c.469-1.655 2.19-2.626 3.884-2.358.549.087 1.112.127 1.675.127a3.344 3.344 0 013.348 3.59zm-10.166-58.144a17.404 17.404 0 016.556-1.393c1.822-.027 3.476 1.286 3.603 3.1a3.348 3.348 0 01-3.341 3.597c-5.94 0-10.775 4.835-10.775 10.776v9.034c0 5.94 4.835 10.776 10.775 10.776a3.351 3.351 0 013.341 3.596c-.127 1.815-1.788 3.127-3.603 3.101a17.26 17.26 0 01-6.556-1.393c-1.868-.797-3.951.549-3.951 2.585 0 2.699.998 5.27 2.813 7.259 1.252 1.373 1.252 3.57-.114 4.829a3.35 3.35 0 01-4.714-.181 17.426 17.426 0 01-4.681-11.901v-46.364c0-9.637 7.835-17.472 17.471-17.472a3.347 3.347 0 013.328 3.723c-.187 1.695-1.707 2.96-3.415 2.974-5.9.047-10.688 4.862-10.688 10.775 0 2.036 2.083 3.382 3.951 2.579z" fill="#D0D6FC"/><path d="M34.3 213.109l5.398.007a5.042 5.042 0 005.049-5.036l.094-84.203c0-2.786-2.25-5.05-5.036-5.05l-5.398-.007a5.042 5.042 0 00-5.05 5.037l-.093 84.202a5.038 5.038 0 005.036 5.05z" fill="#fff"/><path d="M7.534 183.508l23.585.027.04-35.16-23.585-.027c-4.165-.007-7.54 3.369-7.547 7.534L0 175.96a7.535 7.535 0 007.534 7.548z" fill="#fff"/><path d="M63.719 118.921h-5.94a7.705 7.705 0 00-7.708 7.708v78.872a7.705 7.705 0 007.708 7.709h5.94c13.34 0 24.148-10.816 24.148-24.15v-45.989c0-13.341-10.815-24.15-24.148-24.15zm1.881 87.625a17.65 17.65 0 01-2.605.234c-1.828.034-3.502-1.279-3.63-3.1a3.346 3.346 0 013.342-3.59c.563 0 1.125-.04 1.675-.127 1.7-.262 3.421.703 3.884 2.357a3.343 3.343 0 01-2.666 4.226zm14.579-44.931v27.699c0 4.434-1.66 8.66-4.681 11.901a3.335 3.335 0 01-2.451 1.065c-.81 0-1.62-.295-2.263-.884-1.373-1.259-1.373-3.449-.114-4.829a10.732 10.732 0 002.812-7.259c0-2.036-2.076-3.382-3.95-2.586a17.397 17.397 0 01-6.557 1.393c-1.821.027-3.475-1.285-3.603-3.1a3.348 3.348 0 013.342-3.597c5.94 0 10.775-4.835 10.775-10.775v-9.035c0-5.94-4.835-10.775-10.775-10.775a3.352 3.352 0 01-3.342-3.597c.128-1.815 1.788-3.127 3.603-3.101 2.324.034 4.54.53 6.556 1.393 1.869.797 3.951-.549 3.951-2.585 0-5.913-4.788-10.728-10.688-10.775-1.707-.014-3.227-1.273-3.415-2.974a3.347 3.347 0 013.328-3.723c9.637 0 17.472 7.835 17.472 17.472v18.672z" fill="#D0D6FC"/></svg>