<svg width="326" height="395" fill="none" xmlns="http://www.w3.org/2000/svg"><g clip-path="url(#clip0)" fill="#1C34FF"><path d="M325.28 133.72c-2.85-15.17-15.51-26.06-30.18-27.37C278.22 45.23 219.57 0 150 0 70.39 0 5.07 59.23.29 133.74c-.18.56-.29 1.15-.29 1.76v254c0 3.04 2.46 5.5 5.5 5.5h98c3.04 0 5.5-2.46 5.5-5.5v-89.83c12.25 6.21 25.46 10.32 39.17 12.08 5.14.66 10.24.98 15.31.98 8.67 0 17.21-.95 25.52-2.76v79.53c0 3.04 2.46 5.5 5.5 5.5h98c3.04 0 5.5-2.46 5.5-5.5V173.16c.12-.01.23-.01.35-.03 18.29-3.44 30.37-21.12 26.93-39.41zm-96.49 27.98c-1.74-1.46-3.7-2.71-5.86-3.71-9.46-7.31-15.24-19.05-14.41-31.85 1.28-19.62 17.66-34.73 37.05-34.73.81 0 1.63.03 2.45.08 20.44 1.34 35.99 19.06 34.65 39.5-1.34 20.44-19.06 35.99-39.5 34.65a37.051 37.051 0 01-14.38-3.94zm-51.61-46.32c-8.48-9.67-20.22-15.46-33.06-16.3-12.83-.84-25.23 3.37-34.9 11.85-9.03 7.92-14.67 18.69-16.06 30.53-.62-.16-1.28-.23-1.95-.16l-20.16 2.03c23.32-16.89 38.38-44.88 39.84-75.93 28.38 10.72 70.2 11.39 114.22 1.57 11.22-2.5 22.23-5.64 32.77-9.3C266.76 70 274.03 81.63 279.3 94.2c-7.94-7.8-18.59-12.91-30.54-13.69-26.49-1.74-49.47 18.41-51.2 44.91-.18 2.71-.11 5.37.15 7.99l-10.18 1.3a48.156 48.156 0 00-10.35-19.33zm.88 34.18c-1.34 20.45-19.07 35.99-39.5 34.65-20.45-1.34-35.99-19.06-34.65-39.5.65-9.9 5.11-18.96 12.58-25.51 6.84-6 15.44-9.23 24.45-9.23.82 0 1.65.03 2.48.08 9.9.65 18.96 5.11 25.51 12.58 6.53 7.47 9.77 17.03 9.13 26.93zm35.8-123.84c-7.43 1.55-15 2.81-22.62 3.75-5.14.64-10.32 1.13-15.39 1.47-3.03.2-5.32 2.83-5.12 5.86a5.49 5.49 0 005.48 5.13c.12 0 .25 0 .37-.01 5.28-.35 10.67-.87 16.01-1.53 12.04-1.49 23.95-3.74 35.43-6.67 7.79 5.02 15.01 10.76 21.56 17.13-8.7 2.85-17.71 5.33-26.87 7.38-45.25 10.1-89.26 8.53-114.85-4.11-.57-.28-1.17-.45-1.79-.52C101.6 50.56 89 40.62 76.85 30.73 98.11 18.23 123.18 11 150 11c23.01 0 44.73 5.32 63.86 14.72zM98 384H76.33v-62.82c0-3.04-2.46-5.5-5.5-5.5s-5.5 2.46-5.5 5.5V384H44.17v-22c0-3.04-2.46-5.5-5.5-5.5s-5.5 2.46-5.5 5.5v22H11V142.5C11 99.35 33.09 60.99 67.12 37c2.7 2.2 9.61 7.82 16.54 13.32 5.21 4.13 9.41 7.39 12.5 9.69 1.39 1.03 2.66 1.97 3.84 2.76-.13 36.99-21.78 69.75-53.96 81.57-.63.23-1.19.57-1.67.99-15.26 2.18-27.03 15.33-27.03 31.18 0 11.47 6.16 21.52 15.35 27.03l.48 60.51a5.501 5.501 0 005.5 5.46h.04c3.04-.02 5.48-2.51 5.46-5.54l-.45-56.38c1.67.27 3.38.42 5.12.42 5.94 0 11.61-1.65 16.48-4.65.02 22.83.04 70.71-.01 91.86a5.49 5.49 0 005.49 5.51h.01c3.03 0 5.49-2.45 5.5-5.49.01-5.15.02-11.88.02-19.45 6.65 6.71 13.92 12.59 21.67 17.57V384zm51.57-83.16c-28.2-3.62-54.11-18.22-72.95-41.12-.09-.11-.2-.19-.29-.29 0-31.7-.03-68.13-.03-68.66 0-.42-.05-.82-.14-1.21-.25-1.48-1.08-2.85-2.44-3.72a5.51 5.51 0 00-7.6 1.67 20.423 20.423 0 01-17.29 9.48c-11.3 0-20.5-9.2-20.5-20.5s9.2-20.5 20.5-20.5c.21 0 .41-.01.61-.04a5.43 5.43 0 002.53.34l40.34-4.06c.27-.03.52-.08.78-.14 2.37 22.92 21 41.53 44.75 43.08 1.07.07 2.12.1 3.18.1 25.13 0 46.36-19.58 48.02-45.01.1-1.57.13-3.13.08-4.68l10.94-1.4c3.09 8.97 8.78 16.8 16.21 22.53.29.27.62.51.97.72 1.65 1.21 3.38 2.32 5.18 3.31 1.52 1.45 2.74 3.21 3.56 5.21a14.99 14.99 0 01-.06 11.54 14.96 14.96 0 01-8.2 8.11 14.99 14.99 0 01-11.54-.06l-12.55-5.28c-2.8-1.18-6.02.14-7.2 2.94-1.18 2.8.14 6.02 2.94 7.2l12.55 5.28c3.26 1.37 6.68 2.06 10.11 2.06 3.33 0 6.67-.65 9.84-1.94 6.45-2.63 11.49-7.61 14.19-14.03a25.99 25.99 0 001.41-15.74 48.27 48.27 0 008.19.69c17.39 0 32.91-9.38 41.37-23.59v15l-.15 1.96-1.97 15.34c-9.26 72.03-69.97 123.79-135.34 115.41zM265.5 384v-53c0-3.04-2.46-5.5-5.5-5.5s-5.5 2.46-5.5 5.5v53h-21.83v-15c0-3.04-2.46-5.5-5.5-5.5s-5.5 2.46-5.5 5.5v15H200v-76.96c7.48-2.37 14.73-5.44 21.67-9.16v44.61c0 3.04 2.46 5.5 5.5 5.5s5.5-2.46 5.5-5.5v-51.22c7.81-5.22 15.13-11.29 21.83-18.12v27.34c0 3.04 2.46 5.5 5.5 5.5s5.5-2.46 5.5-5.5v-39.94c8.84-11.4 16.15-24.33 21.5-38.43V384h-21.5zm33-222.21l1.35-18.04c.09-.4.15-.82.15-1.25 0-8.38-.77-16.59-2.24-24.57 8.28 2.14 15.03 8.88 16.71 17.83 2.18 11.58-4.88 22.8-15.97 26.03z"/><path d="M188.01 273.89c-10.71 3.84-24.55 5.37-37.96 4.21a5.516 5.516 0 00-5.96 5 5.51 5.51 0 005 5.96c3.34.29 6.67.43 9.98.43 11.71 0 23.03-1.8 32.65-5.25 2.86-1.03 4.35-4.17 3.32-7.03-1.02-2.86-4.17-4.34-7.03-3.32z"/><path d="M206.58 242.77a5.489 5.489 0 00-7.03-3.32c-9.87 3.54-22.4 5.11-34.81 4.43-.14-1.15-.36-2.29-.67-3.4a5.505 5.505 0 00-6.78-3.81 5.505 5.505 0 00-3.81 6.78c.38 1.35.52 2.76.43 4.17-.16 2.31-.96 4.53-2.31 6.41-1.78 2.46-1.22 5.9 1.24 7.68.97.7 2.1 1.04 3.21 1.04 1.71 0 3.39-.79 4.46-2.28 1.26-1.75 2.27-3.66 3-5.67 2.37.15 4.75.25 7.1.25 11.71 0 23.03-1.8 32.65-5.25a5.489 5.489 0 003.32-7.03z"/><path d="M34.88 126.41c1.37 0 2.74-.51 3.8-1.53 8.07-7.72 15.83-16.3 23.06-25.5 6.96-8.85 13.31-18.13 18.9-27.58 1.54-2.62.68-5.99-1.94-7.53a5.487 5.487 0 00-7.53 1.94c-5.34 9.04-11.42 17.91-18.07 26.37-6.92 8.8-14.32 16.99-22.02 24.35a5.509 5.509 0 00-.17 7.78 5.453 5.453 0 003.97 1.7z"/><path d="M38.67 289.17c-3.04 0-5.5 2.46-5.5 5.5v38.5c0 3.04 2.46 5.5 5.5 5.5s5.5-2.46 5.5-5.5v-38.5c0-3.04-2.47-5.5-5.5-5.5z"/><path d="M201.97 223.41a5.495 5.495 0 005.46 4.89c.2 0 .41-.01.61-.03 3.02-.33 5.19-3.05 4.86-6.07l-.44-3.98c-.33-3.02-3.06-5.19-6.07-4.86-3.02.33-5.19 3.05-4.86 6.07l.44 3.98z"/><path d="M186.4 228.25c.25.03.5.05.75.05 2.71 0 5.07-2 5.44-4.75l.56-4.06a5.492 5.492 0 00-4.7-6.19 5.485 5.485 0 00-6.19 4.7l-.56 4.06c-.42 3 1.69 5.78 4.7 6.19z"/><path d="M164.32 227.94c.65.25 1.31.37 1.97.37 2.21 0 4.3-1.34 5.14-3.53l1.55-4.06a5.487 5.487 0 00-3.17-7.1 5.491 5.491 0 00-7.1 3.17l-1.55 4.06c-1.09 2.82.33 6 3.16 7.09z"/><path d="M214.91 265.55a5.497 5.497 0 00-7.38-2.46 5.497 5.497 0 00-2.46 7.38l2.21 4.43a5.492 5.492 0 004.92 3.04 5.497 5.497 0 004.92-7.96l-2.21-4.43z"/><path d="M129.95 266.09a5.497 5.497 0 00-7.38 2.46l-2.21 4.43a5.497 5.497 0 004.92 7.96c2.02 0 3.96-1.11 4.92-3.04l2.21-4.43c1.36-2.72.26-6.02-2.46-7.38z"/><path d="M104.78 255.35l-2.95 3.43a5.508 5.508 0 00.58 7.76 5.512 5.512 0 007.76-.58l2.95-3.43a5.508 5.508 0 00-.58-7.76c-2.3-1.99-5.78-1.72-7.76.58z"/></g><defs><clipPath id="clip0"><path fill="#fff" d="M0 0h325.87v395H0z"/></clipPath></defs></svg>