<svg width="304" height="373" fill="none" xmlns="http://www.w3.org/2000/svg"><g clip-path="url(#clip0)" fill="#fff"><path d="M217.79 150.7a25.775 25.775 0 00-5.86-3.71c-9.46-7.31-15.24-19.05-14.41-31.85 1.29-19.62 17.66-34.73 37.05-34.73.81 0 1.63.03 2.45.08 20.45 1.34 35.99 19.06 34.65 39.5-1.34 20.44-19.05 35.99-39.5 34.65a37.051 37.051 0 01-14.38-3.94z"/><path d="M133.12 88.08c-25.67-1.69-47.99 17.14-50.97 42.38-.62-.16-1.28-.23-1.95-.16l-20.16 2.03c23.32-16.89 38.38-44.88 39.84-75.93 28.38 10.72 70.2 11.39 114.22 1.57 11.22-2.5 22.23-5.64 32.77-9.3 8.88 10.33 16.15 21.96 21.42 34.53-7.94-7.8-18.59-12.91-30.54-13.69-26.49-1.74-49.46 18.41-51.2 44.91-.18 2.71-.11 5.37.15 7.99l-10.2 1.31c-5.2-19.39-22.27-34.26-43.38-35.64z"/><path d="M167.06 138.56c-.65 9.9-5.11 18.96-12.58 25.51-7.46 6.54-17.04 9.79-26.93 9.14-20.45-1.34-35.99-19.06-34.65-39.5 1.28-19.62 17.66-34.73 37.05-34.73.81 0 1.63.03 2.45.08 20.45 1.34 35.99 19.06 34.66 39.5z"/><path d="M202.86 14.73c-7.43 1.55-15 2.81-22.62 3.75-5.13.64-10.31 1.13-15.39 1.47-3.03.2-5.32 2.83-5.12 5.86a5.49 5.49 0 005.48 5.13c.12 0 .25 0 .37-.01 5.29-.35 10.68-.87 16.01-1.53 12.04-1.49 23.95-3.74 35.43-6.67 7.79 5.02 15.01 10.76 21.56 17.13-8.7 2.85-17.71 5.33-26.87 7.38-45.25 10.1-89.26 8.53-114.85-4.11-.57-.28-1.17-.45-1.79-.52C90.61 39.56 78 29.62 65.85 19.73 87.11 7.23 112.18 0 139 0c23.01 0 44.73 5.32 63.86 14.73z"/><path d="M254.5 373v-53c0-3.04-2.46-5.5-5.5-5.5s-5.5 2.46-5.5 5.5v53h-21.83v-15c0-3.04-2.46-5.5-5.5-5.5s-5.5 2.46-5.5 5.5v15H189v-76.87c7.42-2.34 14.67-5.38 21.67-9.13v44.5c0 3.04 2.46 5.5 5.5 5.5s5.5-2.46 5.5-5.5v-51.12c4.32-2.89 8.52-6.05 12.57-9.5 3.22-2.74 6.31-5.62 9.26-8.62v27.24c0 3.04 2.46 5.5 5.5 5.5s5.5-2.46 5.5-5.5v-39.81c8.99-11.57 16.23-24.53 21.5-38.47V373h-21.5z"/><path d="M287.5 150.79l1.35-18.04c.1-.4.15-.83.15-1.26 0-8.38-.77-16.58-2.24-24.57 8.28 2.14 15.03 8.88 16.71 17.82 2.18 11.6-4.88 22.82-15.97 26.05z"/><path d="M65.3 284.24a5.508 5.508 0 01-5.5 5.49h-.01a5.51 5.51 0 01-5.49-5.51c.05-21.15.03-69.02.01-91.86a31.44 31.44 0 01-16.48 4.65c-1.74 0-3.45-.15-5.12-.42l.45 56.38a5.497 5.497 0 01-5.46 5.54h-.04c-3.02 0-5.47-2.43-5.5-5.46l-.48-60.51c-9.19-5.51-15.35-15.56-15.35-27.03 0-15.85 11.77-29 27.03-31.18.48-.41 1.04-.75 1.67-.99C67.22 121.51 88.86 88.76 89 51.76c-1.19-.79-2.45-1.73-3.84-2.76-3.08-2.29-7.28-5.55-12.5-9.69A1631.8 1631.8 0 0156.12 26C22.09 49.99 0 88.35 0 131.5V373h22.17v-22c0-3.04 2.46-5.5 5.5-5.5s5.5 2.46 5.5 5.5v22h21.17v-62.82c0-3.04 2.46-5.5 5.5-5.5s5.5 2.46 5.5 5.5V373H87v-90.64a127.464 127.464 0 01-21.67-17.57c-.01 7.57-.01 14.3-.03 19.45zM20.07 105.93c7.7-7.36 15.1-15.56 22.02-24.35 6.66-8.46 12.74-17.34 18.07-26.37 1.54-2.62 4.92-3.48 7.53-1.94 2.62 1.54 3.48 4.92 1.94 7.53-5.58 9.45-11.94 18.73-18.9 27.58-7.23 9.2-14.99 17.78-23.06 25.5a5.5 5.5 0 01-3.8 1.53 5.47 5.47 0 01-3.97-1.7c-2.1-2.2-2.02-5.68.17-7.78zm13.1 218.24c0 3.04-2.46 5.5-5.5 5.5s-5.5-2.46-5.5-5.5v-38.5c0-3.04 2.46-5.5 5.5-5.5s5.5 2.46 5.5 5.5v38.5z"/><path d="M234.63 165.72a48.27 48.27 0 01-8.19-.69c1.13 5.1.76 10.57-1.41 15.74-4.19 9.96-13.88 15.96-24.07 15.96-3.37 0-6.79-.66-10.08-2.04l-12.55-5.28a5.498 5.498 0 01-2.94-7.2 5.51 5.51 0 017.2-2.94l12.55 5.28a14.99 14.99 0 0011.54.06 14.96 14.96 0 008.2-8.11c1.56-3.71 1.58-7.81.07-11.54-.82-2-2.04-3.76-3.56-5.21-1.8-.99-3.53-2.1-5.18-3.31a5.81 5.81 0 01-.97-.72c-7.43-5.73-13.12-13.56-16.21-22.53l-10.94 1.4c.05 1.55.03 3.11-.07 4.68-.84 12.84-6.63 24.58-16.3 33.06-8.86 7.77-20.01 11.96-31.69 11.96-1.07 0-2.14-.03-3.21-.1-23.75-1.55-42.38-20.16-44.75-43.08-.25.06-.51.11-.78.14l-40.34 4.06a5.39 5.39 0 01-2.53-.34c-.2.02-.4.04-.61.04-11.3 0-20.5 9.2-20.5 20.5s9.2 20.5 20.5 20.5c7.04 0 13.5-3.54 17.29-9.48a5.498 5.498 0 017.6-1.67c1.36.87 2.19 2.25 2.44 3.73.09.39.14.79.14 1.21 0 .53.03 36.96.03 68.66.09.1.2.18.29.29 18.84 22.9 44.75 37.5 72.95 41.12 31.58 4.05 63.02-5.66 88.55-27.34 25.67-21.8 42.28-53.07 46.77-88.05l1.97-15.34.15-1.96v-15c-8.45 14.16-23.97 23.54-41.36 23.54zm-132.52 85.81l-2.95 3.43a5.512 5.512 0 01-7.76.58 5.507 5.507 0 01-.58-7.76l2.95-3.43a5.507 5.507 0 017.76-.58c2.3 1.98 2.56 5.45.58 7.76zm19.3 10.94l-2.21 4.43a5.492 5.492 0 01-4.92 3.04 5.497 5.497 0 01-4.92-7.96l2.21-4.43a5.497 5.497 0 017.38-2.46 5.497 5.497 0 012.46 7.38zm73.98-60.12a5.49 5.49 0 016.07 4.86l.44 3.98c.33 3.02-1.84 5.74-4.86 6.07-.21.02-.41.03-.61.03-2.77 0-5.15-2.08-5.46-4.89l-.44-3.98c-.34-3.02 1.84-5.73 4.86-6.07zm-24.7 8.7l.55-4.06a5.485 5.485 0 016.19-4.7c3.01.41 5.12 3.18 4.7 6.19l-.55 4.06a5.507 5.507 0 01-6.19 4.71c-3-.41-5.11-3.19-4.7-6.2zm-20.54-1.22l1.56-4.06a5.503 5.503 0 017.1-3.17 5.503 5.503 0 013.17 7.1l-1.56 4.06a5.495 5.495 0 01-7.11 3.16c-2.83-1.07-4.24-4.25-3.16-7.09zm30.57 63.42c-9.61 3.45-20.94 5.25-32.65 5.25-3.31 0-6.64-.14-9.98-.43a5.49 5.49 0 01-5-5.96 5.484 5.484 0 015.96-5c13.42 1.17 27.25-.37 37.96-4.21 2.86-1.02 6.01.46 7.03 3.32 1.03 2.85-.46 6-3.32 7.03zm-21.11-29.2c-2.35 0-4.73-.1-7.1-.25a23.54 23.54 0 01-3 5.67 5.498 5.498 0 01-4.46 2.28c-1.12 0-2.24-.34-3.21-1.04-2.46-1.78-3.02-5.22-1.24-7.68 1.36-1.88 2.16-4.1 2.31-6.41.1-1.42-.05-2.82-.43-4.17-.82-2.92.88-5.96 3.81-6.78 2.93-.82 5.96.88 6.78 3.81.31 1.12.53 2.26.67 3.4 12.41.69 24.94-.89 34.81-4.43 2.86-1.02 6.01.46 7.03 3.32 1.02 2.86-.46 6.01-3.32 7.03-9.61 3.45-20.94 5.25-32.65 5.25zm44.05 22.31c-.79.39-1.63.58-2.46.58-2.02 0-3.96-1.11-4.92-3.04l-2.21-4.43a5.497 5.497 0 012.46-7.38 5.497 5.497 0 017.38 2.46l2.21 4.43c1.36 2.72.26 6.02-2.46 7.38z"/></g><defs><clipPath id="clip0"><path fill="#fff" d="M0 0h303.86v373H0z"/></clipPath></defs></svg>